# xmcd
#
# Track frame offsets:
#	150
#	20218
#	41091
#	58684
#	76014
#	96678
#	111688
#	132055
#	151259
#	171362
#	187321
#	204883
#
# Disc length: 3021 seconds
#
# Revision: 0
# Processed by: cddbd v1.4PL0 Copyright (c) Steve Scherf et al.
# Submitted via: dBpowerAMP V4.0
#
DISCID=ad0bcb0c
DTITLE=Side A - Acoustic Love Songs
DYEAR=2002
DGENRE=Acoustic
TTITLE0=Till
TTITLE1=Forevermore
TTITLE2=Tell Me
TTITLE3=If Only
TTITLE4=Ang Aking Awitin
TTITLE5=Will I Ever
TTITLE6=I Still Cry
TTITLE7=Think it Over
TTITLE8=Sa Ugoy Ng Duyan
TTITLE9=Breakaway
TTITLE10=I Accept
TTITLE11=Acoustic Medley
EXTD=
EXTT0=
EXTT1=
EXTT2=
EXTT3=
EXTT4=
EXTT5=
EXTT6=
EXTT7=
EXTT8=
EXTT9=
EXTT10=
EXTT11=
PLAYORDER=
